<?xml version="1.0" standalone="no"?>
<!DOCTYPE svg PUBLIC "-//W3C//DTD SVG 20010904//EN"
 "http://www.w3.org/TR/2001/REC-SVG-20010904/DTD/svg10.dtd">
<svg version="1.0" xmlns="http://www.w3.org/2000/svg"
 width="800.000000pt" height="800.000000pt" viewBox="0 0 800.000000 800.000000"
 preserveAspectRatio="xMidYMid meet">
<metadata>
Created by potrace 1.14, written by Peter Selinger 2001-2017
</metadata>
<g transform="translate(0.000000,800.000000) scale(0.100000,-0.100000)"
fill="#000000" stroke="none">
<path d="M3695 7989 c-1055 -87 -2005 -562 -2699 -1349 -666 -756 -1022 -1738
-993 -2740 7 -238 18 -346 53 -560 146 -882 601 -1712 1264 -2306 645 -577
1406 -916 2273 -1010 205 -23 608 -23 812 -1 495 55 929 180 1360 392 1159
572 1977 1676 2179 2945 39 244 49 377 49 645 0 512 -81 955 -260 1425 -462
1212 -1499 2133 -2758 2448 -169 42 -403 84 -570 102 -136 15 -575 21 -710 9z
m810 -78 c1297 -177 2402 -951 2991 -2096 234 -453 367 -896 425 -1415 20
-174 18 -650 -4 -830 -60 -498 -186 -919 -401 -1345 -515 -1016 -1434 -1756
-2532 -2040 -645 -167 -1353 -165 -1994 6 -740 197 -1430 619 -1928 1181 -545
615 -872 1338 -979 2163 -22 174 -25 719 -5 885 59 482 173 883 367 1287 372
775 1014 1431 1774 1813 422 211 909 355 1356 399 61 6 126 13 145 15 19 2
170 3 335 1 232 -3 334 -8 450 -24z"/>
<path d="M3650 7629 c-1749 -171 -3134 -1572 -3281 -3317 -19 -224 -7 -626 24
-832 14 -91 35 -208 47 -260 276 -1243 1177 -2252 2380 -2665 247 -84 510
-143 795 -177 166 -20 635 -17 810 5 695 87 1316 349 1869 791 131 104 429
402 534 534 180 226 309 429 437 687 266 540 389 1099 372 1700 -9 303 -42
550 -111 817 -343 1321 -1396 2342 -2729 2644 -259 59 -418 76 -747 79 -168 2
-348 -1 -400 -6z m401 -304 c60 -56 168 -109 263 -129 43 -9 177 -19 341 -25
149 -6 324 -17 390 -26 340 -44 540 -137 612 -283 25 -51 28 -68 28 -157 0
-97 -1 -104 -39 -180 -36 -74 -57 -98 -281 -320 -242 -241 -300 -311 -337
-409 -28 -73 -22 -161 15 -210 56 -73 164 -125 230 -110 115 24 233 156 341
379 24 49 78 161 120 248 115 235 201 318 366 353 121 25 204 -4 315 -108 142
-133 254 -347 420 -808 85 -236 113 -289 200 -375 54 -54 142 -115 172 -120 1
-1 -9 -23 -22 -50 -78 -160 -74 -274 24 -611 145 -504 173 -764 101 -956 -47
-127 -164 -207 -312 -216 -132 -8 -197 15 -481 172 -345 190 -511 232 -632
162 -86 -51 -133 -209 -89 -302 55 -115 232 -180 624 -229 302 -37 404 -70
492 -158 24 -25 59 -73 78 -108 31 -58 34 -72 34 -144 -1 -148 -77 -279 -279
-480 -127 -127 -175 -168 -457 -388 -85 -67 -155 -131 -183 -167 -57 -74 -103
-173 -113 -242 l-7 -53 -100 3 c-112 4 -194 -12 -279 -55 -28 -14 -154 -94
-281 -178 -347 -231 -530 -324 -714 -361 -150 -30 -265 -1 -350 87 -131 135
-146 257 -77 609 82 411 74 583 -31 682 -39 37 -77 50 -153 50 -128 1 -204
-61 -231 -191 -20 -95 -6 -291 35 -496 63 -320 65 -423 11 -543 -32 -71 -114
-154 -178 -183 -77 -35 -220 -32 -337 6 -182 59 -359 156 -675 370 -205 139
-232 154 -334 185 -61 19 -89 22 -175 18 l-102 -5 -12 64 c-17 88 -70 189
-139 264 -32 34 -128 116 -213 182 -203 158 -315 254 -426 368 -115 119 -163
184 -211 284 -35 74 -38 86 -38 170 0 78 4 97 27 140 41 79 100 138 176 178
87 46 148 60 397 92 239 30 283 38 401 76 209 66 284 182 224 343 -35 91 -113
146 -211 146 -50 0 -173 -33 -261 -69 -40 -17 -162 -80 -272 -140 -246 -136
-330 -165 -448 -159 -123 7 -230 59 -283 140 -48 72 -67 143 -72 273 -9 194
28 397 142 786 96 326 96 410 -1 624 -2 6 22 23 53 40 77 40 171 136 216 222
19 38 68 159 108 268 216 602 387 853 608 895 65 12 172 -9 244 -47 99 -55
146 -122 297 -428 148 -298 207 -390 295 -457 61 -46 127 -64 182 -49 57 15
131 68 161 114 23 35 27 51 27 111 -1 60 -6 81 -33 133 -48 94 -104 158 -347
398 -198 195 -227 228 -256 290 -32 66 -34 75 -34 180 0 97 3 116 25 158 51
100 173 182 346 231 164 47 366 69 739 81 105 3 222 13 260 20 90 19 200 73
262 130 26 24 50 44 52 45 2 0 26 -20 52 -45z"/>
<path d="M3980 6470 c0 -583 0 -590 20 -590 20 0 20 7 20 590 0 583 0 590 -20
590 -20 0 -20 -7 -20 -590z"/>
<path d="M3725 6543 c17 -45 65 -263 85 -384 12 -73 22 -135 23 -136 2 -1 8 2
15 6 19 11 -41 346 -89 499 -6 18 -17 32 -26 32 -10 0 -13 -6 -8 -17z"/>
<path d="M4241 6537 c-19 -48 -61 -237 -81 -357 -24 -148 -24 -150 -6 -150 10
0 18 33 31 118 10 64 33 179 51 255 19 76 34 142 34 148 0 18 -21 9 -29 -14z"/>
<path d="M3545 6507 c27 -65 85 -279 106 -392 15 -81 25 -115 35 -115 8 0 14
4 14 9 0 34 -56 279 -86 377 -20 66 -39 127 -41 137 -3 9 -14 17 -24 17 -16 0
-17 -3 -4 -33z"/>
<path d="M4396 6430 c-35 -111 -79 -293 -92 -382 -5 -37 -3 -48 7 -48 10 0 22
41 41 138 22 112 52 225 105 385 3 11 0 17 -10 17 -12 0 -26 -31 -51 -110z"/>
<path d="M3350 6510 c0 -6 18 -54 40 -107 40 -95 87 -246 110 -353 18 -85 20
-89 34 -84 37 14 -133 554 -173 554 -6 0 -11 -5 -11 -10z"/>
<path d="M4592 6448 c-81 -194 -154 -464 -129 -480 8 -5 14 2 19 20 4 15 21
82 37 150 17 67 51 173 77 235 59 144 60 147 42 147 -9 0 -27 -29 -46 -72z"/>
<path d="M3220 6349 c53 -110 109 -266 140 -387 7 -26 16 -42 23 -39 44 15
-151 535 -205 545 -14 3 -4 -24 42 -119z"/>
<path d="M4742 6343 c-58 -125 -131 -331 -135 -388 -4 -51 21 -39 32 17 20 92
81 259 137 375 30 62 54 115 54 118 0 3 -6 5 -13 5 -8 0 -41 -57 -75 -127z"/>
<path d="M2995 6400 c-4 -6 11 -36 32 -68 63 -95 140 -254 174 -361 18 -59 37
-100 43 -98 36 13 -78 300 -183 460 -28 42 -53 77 -55 77 -3 0 -8 -5 -11 -10z"/>
<path d="M4936 6333 c-66 -103 -130 -237 -165 -346 -35 -110 -36 -117 -18
-117 8 0 23 32 36 80 33 111 97 251 164 354 31 47 57 89 57 91 0 3 -7 5 -15 5
-9 0 -35 -30 -59 -67z"/>
<path d="M2836 6302 c-2 -4 22 -41 55 -82 66 -83 154 -248 188 -352 16 -49 26
-65 37 -61 8 3 14 7 14 10 0 2 -18 50 -40 106 -48 123 -110 234 -180 322 -50
63 -64 73 -74 57z"/>
<path d="M5118 6283 c-82 -89 -182 -264 -228 -402 -17 -51 -19 -66 -8 -72 9
-6 21 16 44 79 50 141 117 260 200 358 38 45 45 64 24 64 -3 0 -18 -12 -32
-27z"/>
<path d="M2157 5814 c-8 -9 48 -98 111 -177 92 -114 264 -259 283 -240 7 7
-12 27 -58 63 -99 77 -205 189 -265 280 -52 79 -59 86 -71 74z"/>
<path d="M5780 5758 c-41 -72 -191 -233 -279 -298 -55 -41 -71 -65 -43 -65 23
0 196 152 257 225 99 119 143 201 107 200 -4 0 -23 -28 -42 -62z"/>
<path d="M2020 5688 c0 -20 81 -120 166 -203 79 -78 230 -195 252 -195 31 0
14 22 -50 65 -80 53 -246 209 -309 291 -40 53 -59 66 -59 42z"/>
<path d="M5910 5638 c-60 -80 -211 -222 -300 -282 -51 -34 -69 -51 -61 -59 15
-15 136 69 243 172 136 129 212 233 170 231 -4 -1 -27 -28 -52 -62z"/>
<path d="M1903 5544 c-7 -19 10 -37 132 -146 93 -83 294 -228 315 -228 29 0 1
31 -68 75 -103 67 -201 145 -295 237 -56 54 -80 72 -84 62z"/>
<path d="M6015 5489 c-88 -88 -196 -176 -303 -247 -56 -37 -80 -58 -74 -64 12
-12 45 7 167 93 80 56 228 188 274 242 15 17 20 32 15 37 -6 6 -37 -17 -79
-61z"/>
<path d="M3194 5470 c-243 -63 -508 -297 -642 -565 -82 -166 -116 -317 -116
-525 1 -222 41 -413 141 -655 128 -313 300 -562 593 -856 240 -240 474 -427
726 -578 l102 -62 64 37 c296 172 655 467 883 724 221 249 348 440 452 680
110 253 152 428 160 658 6 178 -3 260 -44 402 -86 300 -343 595 -615 708 -105
43 -179 55 -310 50 -95 -4 -127 -10 -199 -37 -112 -41 -215 -110 -313 -209
l-79 -80 -59 64 c-113 120 -247 204 -390 244 -96 26 -254 27 -354 0z"/>
<path d="M1804 5388 c-23 -36 438 -370 469 -339 13 13 20 7 -82 66 -100 58
-220 145 -313 226 -46 41 -69 56 -74 47z"/>
<path d="M6105 5329 c-84 -73 -205 -159 -315 -224 -36 -21 -67 -40 -69 -41 -1
-1 0 -7 4 -13 4 -7 20 -4 47 10 154 79 446 304 423 327 -7 7 -37 -13 -90 -59z"/>
<path d="M1717 5216 c-9 -24 203 -172 384 -270 69 -37 88 -44 92 -32 4 11 -21
29 -89 66 -93 49 -244 146 -335 215 -37 28 -48 32 -52 21z"/>
<path d="M6225 5194 c-56 -47 -235 -163 -330 -215 -52 -28 -95 -54 -95 -58 0
-27 33 -13 205 87 96 56 275 186 275 200 0 19 -22 14 -55 -14z"/>
<path d="M1647 5038 c-6 -17 145 -114 319 -205 77 -40 144 -73 147 -73 4 0 7
7 7 15 0 8 -48 38 -118 74 -116 58 -216 116 -299 172 -47 33 -50 34 -56 17z"/>
<path d="M6240 4987 c-52 -34 -157 -93 -232 -132 -100 -52 -135 -74 -129 -84
6 -10 27 -3 92 29 179 90 379 214 379 236 0 21 -6 18 -110 -49z"/>
<path d="M1087 4945 c-5 -11 71 -39 351 -130 196 -64 448 -146 559 -183 158
-52 205 -64 215 -54 6 6 10 13 7 16 -2 2 -159 54 -349 115 -190 62 -441 144
-557 182 -117 38 -214 69 -217 69 -2 0 -6 -7 -9 -15z"/>
<path d="M6333 4777 c-356 -116 -553 -186 -553 -194 0 -7 8 -13 18 -12 9 0
262 80 562 177 418 136 546 182 548 195 2 9 -2 17 -10 16 -7 -1 -262 -82 -565
-182z"/>
<path d="M1485 4541 c-7 -12 32 -18 156 -25 53 -3 146 -13 205 -22 133 -20
168 -22 173 -9 12 29 -516 84 -534 56z"/>
<path d="M6260 4539 c-156 -18 -283 -44 -288 -58 -5 -16 9 -14 188 14 52 8
142 18 200 21 122 6 150 11 150 24 0 12 -143 11 -250 -1z"/>
<path d="M1440 4356 c0 -14 18 -16 148 -16 134 0 208 -5 360 -26 42 -5 52 -4
52 8 0 23 -134 39 -362 45 -178 5 -198 4 -198 -11z"/>
<path d="M6220 4365 c-8 -2 -61 -9 -117 -15 -75 -9 -103 -16 -103 -26 0 -17 0
-17 135 1 61 8 181 15 268 15 133 0 157 2 157 15 0 13 -24 15 -162 14 -90 -1
-170 -3 -178 -4z"/>
<path d="M1495 4194 c-66 -7 -85 -14 -85 -29 0 -11 7 -13 33 -7 43 9 407 9
480 -1 46 -6 57 -4 57 7 0 8 -14 16 -32 20 -42 8 -400 15 -453 10z"/>
<path d="M6145 4195 c-11 -2 -46 -7 -77 -10 -41 -5 -58 -11 -58 -21 0 -12 13
-13 73 -7 90 10 430 10 475 0 24 -5 32 -3 32 7 0 8 -8 17 -17 21 -19 7 -395
16 -428 10z"/>
<path d="M1500 4013 c-90 -13 -121 -25 -107 -39 3 -3 55 1 116 10 69 10 177
16 290 16 154 0 181 2 181 15 0 13 -28 15 -192 14 -114 -1 -232 -7 -288 -16z"/>
<path d="M6020 4016 c0 -14 21 -16 183 -16 110 0 221 -6 281 -15 120 -18 116
-18 116 -1 0 23 -122 38 -357 43 -201 5 -223 4 -223 -11z"/>
<path d="M1659 3865 c-88 -14 -188 -38 -236 -56 -18 -6 -23 -13 -16 -20 6 -6
34 -3 84 10 113 31 262 51 387 51 87 0 113 3 110 13 -6 17 -221 19 -329 2z"/>
<path d="M6017 3873 c-19 -18 2 -23 102 -23 131 0 232 -13 363 -46 114 -28
108 -28 108 -10 0 17 -119 50 -255 71 -101 15 -306 21 -318 8z"/>
<path d="M1739 3715 c-147 -25 -313 -85 -291 -107 8 -8 24 -5 63 11 118 51
270 81 412 81 71 0 87 3 87 15 0 12 -17 15 -97 14 -54 -1 -132 -7 -174 -14z"/>
<path d="M5990 3715 c0 -12 16 -15 88 -15 114 0 256 -25 357 -62 116 -42 115
-42 115 -26 0 14 -79 49 -170 77 -128 38 -390 56 -390 26z"/>
<path d="M2150 3023 c-89 -62 -269 -148 -364 -172 -89 -23 -87 -23 -78 -38 17
-28 251 57 391 142 101 61 132 87 123 102 -5 8 -27 -2 -72 -34z"/>
<path d="M5776 3062 c-13 -13 -3 -24 67 -70 126 -86 276 -153 404 -180 33 -8
43 -7 47 4 3 9 -4 16 -22 20 -139 30 -279 91 -409 178 -45 30 -84 52 -87 48z"/>
<path d="M2240 2909 c-87 -75 -250 -167 -397 -224 -48 -19 -70 -32 -66 -41 6
-15 67 5 200 66 135 63 313 185 313 216 0 20 -11 17 -50 -17z"/>
<path d="M5707 2926 c-19 -49 475 -318 513 -280 6 6 -28 25 -98 52 -122 48
-255 124 -343 194 -32 26 -61 48 -63 48 -2 0 -6 -6 -9 -14z"/>
<path d="M2300 2764 c-82 -68 -233 -167 -340 -223 -120 -64 -101 -82 21 -20
151 75 407 257 394 279 -10 15 -16 12 -75 -36z"/>
<path d="M5625 2801 c-7 -12 92 -95 205 -171 107 -72 274 -162 283 -153 15 14
5 24 -55 54 -109 54 -227 129 -324 205 -52 41 -96 74 -99 74 -2 0 -6 -4 -10
-9z"/>
<path d="M2386 2632 c-88 -80 -191 -157 -299 -222 -48 -29 -86 -58 -84 -64 6
-16 18 -11 98 36 82 50 231 160 315 235 44 39 56 55 48 63 -9 9 -29 -4 -78
-48z"/>
<path d="M5526 2681 c-18 -29 434 -364 465 -345 17 10 9 20 -30 42 -90 51
-222 145 -318 226 -56 47 -104 86 -107 86 -3 0 -7 -4 -10 -9z"/>
<path d="M2529 2544 c-44 -48 -223 -198 -312 -263 -59 -43 -85 -67 -78 -74 7
-7 28 3 65 28 140 96 381 309 370 326 -9 15 -19 11 -45 -17z"/>
<path d="M5426 2561 c-7 -11 135 -147 239 -231 120 -95 184 -135 196 -123 7 7
-15 28 -70 67 -94 66 -237 185 -301 250 -45 47 -55 53 -64 37z"/>
<path d="M2535 2014 c-245 -338 -343 -480 -336 -487 8 -8 15 -7 25 3 28 31
676 931 676 939 0 6 -4 12 -9 15 -5 4 -165 -208 -356 -470z"/>
<path d="M5101 2481 c-9 -6 76 -131 319 -467 183 -253 341 -468 351 -479 13
-13 22 -16 29 -9 6 6 -107 170 -335 483 -189 260 -345 475 -347 477 -2 1 -9
-1 -17 -5z"/>
<path d="M2570 2357 c-104 -102 -217 -202 -275 -244 -26 -18 -27 -23 -13 -28
22 -9 132 80 293 237 80 78 117 120 110 127 -7 6 -45 -24 -115 -92z"/>
<path d="M5315 2450 c-17 -27 374 -385 396 -363 6 6 -17 31 -68 74 -43 35
-133 117 -199 182 -79 77 -125 114 -129 107z"/>
<path d="M5065 2268 c-4 -9 23 -74 63 -154 38 -77 86 -184 107 -239 46 -117
42 -112 56 -98 18 18 -118 339 -200 474 -16 26 -21 29 -26 17z"/>
<path d="M2842 2127 c-84 -169 -146 -323 -137 -345 8 -22 13 -15 65 117 27 65
76 173 109 239 34 65 61 122 61 125 0 4 -6 7 -14 7 -7 0 -45 -63 -84 -143z"/>
<path d="M3005 2088 c-58 -124 -148 -372 -143 -397 7 -34 24 -1 66 124 24 72
70 185 102 252 32 67 55 124 52 127 -15 15 -27 -2 -77 -106z"/>
<path d="M4910 2197 c0 -1 27 -61 60 -132 32 -72 78 -188 102 -260 23 -71 43
-132 45 -134 2 -3 8 0 15 7 24 24 -174 522 -208 522 -8 0 -14 -1 -14 -3z"/>
<path d="M3151 2015 c-50 -122 -121 -356 -121 -401 0 -34 18 -39 26 -7 39 173
77 292 135 427 36 84 40 106 19 106 -4 0 -31 -56 -59 -125z"/>
<path d="M4774 2127 c-2 -7 10 -44 27 -82 45 -99 104 -277 125 -379 17 -83 28
-102 40 -71 13 34 -75 324 -144 478 -31 68 -39 77 -48 54z"/>
<path d="M3331 2041 c-76 -177 -150 -515 -116 -527 6 -2 18 44 28 107 18 114
69 295 111 399 19 45 21 60 11 64 -8 3 -21 -13 -34 -43z"/>
<path d="M4631 2081 c-9 -6 -10 -14 -3 -27 40 -75 118 -357 137 -496 4 -35 10
-46 20 -41 18 6 14 36 -22 203 -25 113 -66 249 -101 329 -12 30 -21 38 -31 32z"/>
<path d="M3471 1987 c-46 -124 -75 -268 -86 -424 -6 -79 -5 -93 8 -93 11 0 16
21 22 98 11 155 47 318 100 455 5 12 2 17 -8 17 -10 0 -23 -21 -36 -53z"/>
<path d="M4480 2036 c0 -3 13 -44 29 -93 42 -126 62 -232 68 -360 5 -86 9
-113 19 -113 19 0 18 127 -1 250 -20 127 -81 320 -100 320 -8 0 -15 -2 -15 -4z"/>
<path d="M3612 1948 c-33 -115 -52 -242 -52 -352 0 -110 6 -146 24 -146 8 0
11 49 12 163 1 145 4 173 28 262 40 145 40 145 24 145 -10 0 -22 -25 -36 -72z"/>
<path d="M4351 1958 c41 -136 53 -221 54 -365 0 -99 3 -143 11 -143 15 0 24
56 24 145 0 148 -58 417 -92 423 -15 3 -15 -2 3 -60z"/>
</g>
</svg>
